<?xml version="1.0" encoding="UTF-8"?>
<!DOCTYPE svg PUBLIC "-//W3C//DTD SVG 1.1//EN" "http://www.w3.org/Graphics/SVG/1.1/DTD/svg11.dtd">
<!-- Creator: CorelDRAW 2017 -->
<svg xmlns="http://www.w3.org/2000/svg" xml:space="preserve" width="400px" height="400px" version="1.1" style="shape-rendering:geometricPrecision; text-rendering:geometricPrecision; image-rendering:optimizeQuality; fill-rule:evenodd; clip-rule:evenodd"
viewBox="0 0 310.02 310.02"
 xmlns:xlink="http://www.w3.org/1999/xlink">
 <defs>
  <style type="text/css">
   <![CDATA[
    .str2 {stroke:#FFE1B2;stroke-width:0.65;stroke-miterlimit:22.9256}
    .str1 {stroke:#E3E3E3;stroke-width:22.65;stroke-miterlimit:22.9256}
    .str3 {stroke:#434242;stroke-width:1.53;stroke-miterlimit:22.9256}
    .str4 {stroke:#FFDBAD;stroke-width:1.53;stroke-miterlimit:22.9256}
    .str0 {stroke:#EDEDED;stroke-width:29.12;stroke-miterlimit:22.9256}
    .fil2 {fill:none}
    .fil13 {fill:black}
    .fil0 {fill:#0EB9E2}
    .fil6 {fill:#2B2A29}
    .fil1 {fill:#2B2A29}
    .fil8 {fill:#434242}
    .fil5 {fill:#434242}
    .fil9 {fill:#EBECEC}
    .fil12 {fill:#FCD0A1}
    .fil4 {fill:#FDC88E}
    .fil3 {fill:#FFD7A3}
    .fil10 {fill:#FFD7A3}
    .fil7 {fill:#FFE1B2}
    .fil11 {fill:white}
   ]]>
  </style>
 </defs>
 <g id="Слой_x0020_1">
  <metadata id="CorelCorpID_0Corel-Layer"/>
  <circle class="fil0" cx="156.42" cy="151.66" r="115.21"/>
  <rect class="fil1" x="105.65" y="261.6" width="93.06" height="10.89"/>
  <circle class="fil2 str0" cx="155.01" cy="155.01" r="140.45"/>
  <g id="tw_400x400.svg">
   <g>
    <path class="fil3" d="M234.89 250.46l-5.35 -42.79c-0.81,-6.46 -5.26,-11.89 -11.43,-13.95l-20.63 -6.87c-2.83,-0.95 -5.94,-0.34 -8.13,1.52l-6.07 -2.03c-3.45,-1.15 -5.78,-4.38 -5.78,-8.02l0 -13.63 18.2 -7.59c9.45,-3.93 15.61,-13.17 15.61,-23.4l0 -4.23c7,0 12.68,-5.68 12.68,-12.68 0,-3.46 -1.39,-6.6 -3.65,-8.89l4.46 -35.66c2.08,-16.65 -5.69,-32.99 -19.92,-41.88 -6.85,-4.28 -14.76,-6.55 -22.83,-6.55 0,0 -60.49,0.01 -60.75,0.03 -8.86,0.43 -16.52,5.41 -20.7,12.65l-1.19 0c-12.48,0 -22.93,10.62 -21.53,23.02 0.02,0.09 0.03,0.18 0.04,0.27l6.01 48.12c-2.25,2.29 -3.64,5.43 -3.64,8.89 0,7 5.68,12.68 12.68,12.68l0 4.23c0,10.23 6.15,19.47 15.6,23.41l18.21 7.58 0 13.63c0,3.64 -2.33,6.87 -5.78,8.02l-6.08 2.03c-2.18,-1.86 -5.29,-2.46 -8.12,-1.52l-20.63 6.88c-6.18,2.05 -10.62,7.48 -11.43,13.94l-5.35 42.79c-0.94,7.57 4.96,14.26 12.58,14.26l0.12 0 140.1 0 0.12 0c7.62,0 13.52,-6.69 12.58,-14.26z"/>
    <path class="fil4" d="M126.78 178.32c0,0 0,0.01 0,0.01 0,0.2 -0.01,0.4 -0.03,0.6 0,0.11 -0.02,0.22 -0.03,0.32 -0.01,0.09 -0.01,0.17 -0.03,0.25 -0.02,0.16 -0.05,0.33 -0.08,0.49 0,0 0,0 0,0 -0.47,2.33 -1.9,4.35 -3.93,5.57 35.36,6.11 54.82,-21.22 54.82,-21.22l-50.72 0 0 13.98 0 0 0 0z"/>
    <path class="fil5" d="M204.88 30.36c-6.85,-4.28 -14.76,-6.55 -22.83,-6.55l-0.33 0 0 88.75 38.04 0 5.04 -40.32c2.08,-16.64 -5.69,-32.99 -19.92,-41.88z"/>
    <path class="fil6" d="M77.88 59.51c0.02,0.09 0.02,0.18 0.04,0.27l6.59 52.79 25.36 0 0 -76.08 -10.46 0c-12.48,0 -22.93,10.62 -21.53,23.02l0 0z"/>
    <path class="fil7" d="M211.31 104.11l0 -8.45c0,-11.67 -9.46,-21.13 -21.13,-21.13l-76.08 0c-11.67,0 -21.13,9.46 -21.13,21.13l0 8.45c-7,0 -12.68,5.68 -12.68,12.68 0,7 5.68,12.68 12.68,12.68l0 4.23c0,10.23 6.15,19.47 15.6,23.41l27.31 11.37c5.15,2.15 10.68,3.26 16.26,3.26l0 0c5.58,0 11.1,-1.11 16.25,-3.26l27.31 -11.38c9.45,-3.93 15.61,-13.17 15.61,-23.4l0 -4.23c7,0 12.68,-5.68 12.68,-12.68 0,-7 -5.68,-12.68 -12.68,-12.68l0 0z"/>
    <path class="fil8" d="M122.34 118.95l0 0c-2.33,0 -4.01,0.17 -4.01,-2.16l0 -4.22c0,-2.33 1.79,-2.12 4.12,-2.12l0 0c2.32,0 4.33,-0.21 4.33,2.12l0 4.22c0,2.33 -2.12,2.16 -4.44,2.16l0 0z"/>
    <path class="fil8" d="M181.57 119.06l0 0c-2.33,0 -4.07,0.06 -4.07,-2.27l0 -4.23c0,-2.32 1.9,-2.12 4.22,-2.12l0 0c2.33,0 4.23,-0.2 4.23,2.12l0 4.23c0,2.33 -2.06,2.27 -4.38,2.27l0 0z"/>
    <path class="fil9" d="M154.66 155.75c-4.64,0 -6.31,-3.4 -8.9,-8.15 -0.92,-2.47 -0.98,-2.77 -1.74,-4.98 -0.22,-1.55 -0.02,-1.1 2.63,-0.99 6.56,0 -2.05,-0.21 7.9,-0.21 6.62,0 5.93,0 10.65,-0.24 1.12,0 1.12,0.67 0.24,3.1 -1.37,2.88 -1.15,2.53 -2.21,5.09 -1.99,3.76 -3.86,6.38 -8.57,6.38l0 0z"/>
    <path class="fil10" d="M190.18 74.53l-76.08 0c-1.45,0 -2.86,0.15 -4.22,0.43l0 -0.01c-9.65,1.96 -16.91,10.49 -16.91,20.71l0 8.45c-7,0 -12.68,5.68 -12.68,12.68 0,7 5.68,12.68 12.68,12.68l0 4.23c0,10.23 6.15,19.47 15.6,23.41l27.31 11.37c1.34,0.56 2.7,1.04 4.08,1.46 -12.06,-8.83 -20.1,-16.55 -24.81,-21.6 -3.42,-3.67 -5.27,-8.51 -5.27,-13.53l0 -47.91c23.46,18.72 74.07,17.21 101.43,17.21l0 -8.45c0,-11.67 -9.46,-21.13 -21.13,-21.13l0 0z"/>
    <path class="fil8" d="M181.72 23.81l-59.17 0c-14,0 -25.35,11.35 -25.35,25.36l0 0c0,24.43 23.24,39.23 42.26,46.49 0,0 -2.12,-3.87 -4.98,-9.59 16.87,5.64 42.92,9.59 78.41,9.59 0,0 0,-9.11 0,-12.15 0,-61.64 -31.17,-59.7 -31.17,-59.7l0 0z"/>
    <path class="fil1" d="M152.14 212.94c17.21,0 32.18,-9.57 39.89,-23.68l-8.75 -2.92c-0.85,-0.28 -1.63,-0.7 -2.33,-1.21 -5.94,9.7 -16.6,16.19 -28.81,16.19 -12.21,0 -22.87,-6.49 -28.82,-16.19 -0.69,0.51 -1.47,0.93 -2.32,1.21l-8.76 2.92c7.71,14.11 22.69,23.68 39.9,23.68z"/>
    <path class="fil5" d="M234.89 250.46l-5.35 -42.79c-0.81,-6.46 -5.26,-11.89 -11.43,-13.95l-20.63 -6.87c-3.59,-1.2 -7.64,0.08 -9.67,3.28 -7.49,11.8 -20.65,19.64 -35.67,19.64 -15.02,0 -28.19,-7.84 -35.68,-19.64 -2.03,-3.2 -6.07,-4.48 -9.66,-3.28l-20.63 6.87c-6.18,2.06 -10.62,7.49 -11.43,13.95l-5.35 42.79c-0.94,7.57 4.96,14.26 12.58,14.26l140.33 0c7.63,0 13.53,-6.69 12.58,-14.26l0.01 0z"/>
    <path class="fil1" d="M78.26 199.3c-1.87,2.37 -3.13,5.24 -3.52,8.37l-5.35 42.79c-0.94,7.57 4.96,14.26 12.58,14.26l23.68 0 0 -27.51c0,-4.07 -1.47,-8 -4.13,-11.07l-23.26 -26.84 0 0z"/>
    <path class="fil6" d="M226.01 199.3c1.88,2.37 3.13,5.24 3.53,8.37l5.35 42.79c0.94,7.57 -4.96,14.26 -12.59,14.26l-23.67 0 0 -27.51c0,-4.07 1.46,-8 4.13,-11.07l23.25 -26.84 0 0z"/>
    <path class="fil11" d="M155.07 263.05c0,-0.13 0.4,-1.11 0.9,-2.17 1.02,-2.19 0.97,-2.48 -0.5,-3.14 -1.33,-0.59 -1.13,-0.86 0.86,-1.13 1.7,-0.25 3.71,-0.79 4.59,-1.24 1.29,-0.68 2.48,-2.85 2.87,-5.22 0.29,-1.88 0.18,-5.36 -0.27,-7.51 -0.21,-0.97 -0.66,-0.4 -1.34,1.67 -0.45,1.34 -0.7,1.79 -0.97,1.75 -0.43,-0.1 -1.35,-1.86 -1.51,-2.97 -0.11,-0.67 -0.05,-0.85 0.56,-1.35 0.39,-0.34 1.13,-0.72 1.65,-0.88 0.52,-0.14 0.97,-0.27 1,-0.3 0.04,-0.02 -0.14,-0.54 -0.39,-1.19 -0.25,-0.64 -0.49,-1.5 -0.58,-1.9 -0.19,-1 -0.21,-1.11 -0.52,-1.83 -0.14,-0.37 -0.19,-0.77 -0.09,-0.91 0.09,-0.16 0.18,-0.97 0.22,-1.83 0.05,-1.65 0.23,-3.21 0.39,-3.5 0.38,-0.61 3.68,0.11 5.15,1.15 0.36,0.25 0.9,0.5 1.24,0.54 0.75,0.14 1.27,0.59 1.31,1.16 0,0.22 0.34,0.88 0.73,1.42 0.56,0.84 1.62,2.89 1.76,3.39 0.38,1.47 0.32,1.4 1.6,1.29 0.89,-0.07 1.34,0 1.79,0.29 0.59,0.39 1.15,1.25 1.13,1.7 -0.07,0.67 -0.45,1.87 -0.75,2.35l-0.36 0.52 -0.45 -0.57c-0.27,-0.31 -0.72,-0.97 -1.02,-1.49 -0.72,-1.22 -1.26,-1.42 -1.01,-0.41 0.27,1.07 0.18,4.12 -0.16,5.34 -0.32,1.17 -1.45,3.57 -1.92,4.02 -0.18,0.18 -0.32,0.41 -0.32,0.5 0,0.27 -2.49,2.64 -3.78,3.59 -0.65,0.5 -2.28,1.49 -3.61,2.22 -1.92,1.04 -2.85,1.74 -4.39,3.25 -1.06,1.06 -2.21,2.31 -2.55,2.78 -0.61,0.79 -1.26,1.11 -1.26,0.61l0 0z"/>
    <path class="fil11" d="M142.65 261.91c-1.08,-0.22 -2.5,-0.82 -3.37,-1.45 -0.36,-0.26 -0.94,-0.48 -1.28,-0.48 -0.69,0 -1.06,-0.38 -1.22,-1.3 -0.12,-0.63 -0.65,-1.47 -1.23,-1.88 -0.12,-0.09 -0.17,-0.19 -0.05,-0.19 0.1,0 -0.1,-0.43 -0.43,-0.96 -0.34,-0.53 -0.56,-0.97 -0.48,-0.97 0.07,0 -0.03,-0.24 -0.24,-0.55 -0.2,-0.29 -0.39,-0.77 -0.44,-1.01 -0.09,-0.67 -0.41,-1.11 -0.65,-0.96 -0.12,0.07 -0.74,0.14 -1.37,0.17 -0.99,0 -1.2,-0.08 -1.83,-0.77 -0.6,-0.68 -0.7,-0.94 -0.6,-1.81 0.14,-1.13 0.65,-2.33 1.06,-2.45 0.17,-0.05 0.62,0.48 1.03,1.2 0.41,0.7 0.97,1.49 1.23,1.73 0.51,0.46 0.51,0.46 0.36,-0.38 -0.33,-1.74 -0.17,-4.65 0.36,-6.36 0.29,-0.91 0.65,-1.85 0.82,-2.04 0.15,-0.2 0.43,-0.68 0.63,-1.09 1.01,-2.02 5.61,-5.8 9.36,-7.7 0.7,-0.34 1.44,-0.77 1.66,-0.91 0.6,-0.51 3.97,-3.86 5.1,-5.11 0.94,-1.03 1.09,-1.13 1.16,-0.69 0.05,0.26 -0.36,1.39 -0.89,2.5l-0.99 2.02 0.53 0.55c0.29,0.32 0.65,0.56 0.82,0.56 0.14,0 0.53,0.19 0.84,0.43l0.53 0.46 -0.7 0.17c-0.38,0.09 -1.08,0.21 -1.54,0.29 -5.17,0.55 -6.71,1.92 -7.87,6.95 -0.12,0.53 -0.09,5.51 0.03,6.26 0.31,1.95 0.45,2.29 0.77,2.02 0.26,-0.21 0.96,-1.97 1.15,-2.93 0.15,-0.68 0.46,-1.14 0.77,-1.14 0.46,0 1.47,1.86 1.66,3.04 0.15,0.91 0.1,1.03 -0.72,1.71 -0.48,0.4 -1.25,0.79 -1.78,0.89 -0.82,0.12 -0.91,0.21 -0.82,0.67 0.07,0.31 0.22,0.67 0.31,0.8 0.2,0.24 0.63,1.7 0.82,2.76 0.05,0.34 0.22,0.89 0.39,1.25 0.19,0.39 0.21,0.82 0.12,1.09 -0.12,0.24 -0.22,1.2 -0.27,2.12 -0.04,1.87 -0.21,3.08 -0.45,3.46 -0.17,0.29 -1.01,0.31 -2.29,0.03l0 0z"/>
   </g>
  </g>
  <circle class="fil2 str1" cx="155.51" cy="153.55" r="124.64"/>
  <path class="fil2 str2" d="M166.34 141.1l-22.97 0c0,4.96 6.69,15.85 11.65,15.85 4.15,0 8.7,-5.35 9.71,-9.38l1.61 -6.47"/>
  <path class="fil12" d="M161.17 135.27c4.71,-1 3.03,-0.8 2.26,0.65 -0.77,1.45 -6.27,3 -10.03,2.59 -3.76,-0.41 -6.14,-2.39 -6.8,-3.24 -0.66,-0.85 9.85,1.01 14.57,0z"/>
  <path class="fil13 str3" d="M122.01 100.25c4.82,0 8.74,0.53 8.74,0 0,-0.54 -3.92,-0.98 -8.74,-0.98 -4.83,0 -9.06,2.38 -9.06,2.92 0,0.53 4.23,-1.94 9.06,-1.94z"/>
  <path class="fil13 str3" d="M183.77 102.66c4.64,0.57 8.17,2.82 8.44,2.28 0.27,-0.54 -2.79,-2.72 -8.19,-3.22 -5.4,-0.51 -9.37,-0.05 -9.51,0.47 -0.14,0.52 4.62,-0.1 9.26,0.47z"/>
  <path class="fil2 str4" d="M155.13 155.61c8.09,0 9.84,-9.88 9.6,-8.04 -0.24,1.84 -3.56,9.38 -9.71,9.38 -6.15,0 -9.4,-8.36 -9.77,-9.61 -0.38,-1.25 1.79,8.27 9.88,8.27z"/>
  <g id="_769341504">
   <path class="fil6" d="M77.88 59.51c0.02,0.09 0.02,0.18 0.04,0.27l1.3 10.45 28.23 -16.51 2.42 -17.23 -10.46 0c-12.48,0 -22.93,10.62 -21.53,23.02l0 0z"/>
   <path class="fil8" d="M181.72 23.81l-59.17 0c-14,0 -25.35,11.35 -25.35,25.36l0 0c0,24.43 23.24,39.23 42.26,46.49 0,0 -2.12,-3.87 -4.98,-9.59 16.87,5.64 42.92,9.59 78.41,9.59 0,0 0,-9.11 0,-12.15 0,-61.64 -31.17,-59.7 -31.17,-59.7l0 0z"/>
   <path class="fil8" d="M204.88 30.36c-6.85,-4.28 -14.76,-6.55 -22.83,-6.55l-0.33 0 4.69 24.73 26.48 34.97 11.91 -11.27c2.08,-16.64 -5.69,-32.99 -19.92,-41.88z"/>
  </g>
 </g>
</svg>
